<svg width="2082" height="430" viewBox="0 0 2082 430" fill="none" xmlns="http://www.w3.org/2000/svg">
<path d="M251.5 297H220L406 6.49999H472.5V330H406V95L422 99.5L273.5 330H199L50.5 100.5L66.5 96V330H3.51667e-06V6.49999H66.5L251.5 297ZM527.816 221H595.316C596.65 232.333 601.816 242.667 610.816 252C620.15 261 632.316 268.167 647.316 273.5C662.316 278.5 679.15 281 697.816 281C714.816 281 728.816 279.167 739.816 275.5C750.816 271.833 758.983 266.667 764.316 260C769.65 253.333 772.316 245.333 772.316 236C772.316 227 768.983 220.167 762.316 215.5C755.65 210.5 745.15 206.5 730.816 203.5C716.483 200.167 697.65 196.833 674.316 193.5C655.983 190.833 638.65 187.167 622.316 182.5C605.983 177.5 591.483 171.167 578.816 163.5C566.483 155.833 556.65 146.5 549.316 135.5C542.316 124.167 538.816 110.833 538.816 95.5C538.816 76.5 544.15 59.8333 554.816 45.5C565.816 31.1666 581.983 20 603.316 12C624.65 3.99999 650.816 -1.3113e-05 681.816 -1.3113e-05C728.483 -1.3113e-05 764.316 9.99999 789.316 30C814.65 49.6667 826.983 76.8333 826.316 111.5H761.316C759.983 91.8333 751.65 77.6667 736.316 69C721.316 60.3333 702.316 56 679.316 56C657.983 56 640.316 59.1666 626.316 65.5C612.65 71.8333 605.816 82.6666 605.816 98C605.816 104 607.483 109.333 610.816 114C614.15 118.333 619.816 122.167 627.816 125.5C635.816 128.833 646.65 132 660.316 135C673.983 138 690.983 141 711.316 144C730.316 146.667 747.483 150.333 762.816 155C778.483 159.333 791.816 165.167 802.816 172.5C814.15 179.5 822.816 188.5 828.816 199.5C834.816 210.5 837.816 224 837.816 240C837.816 259.667 832.65 276.833 822.316 291.5C812.316 305.833 796.65 317 775.316 325C754.316 333 726.983 337 693.316 337C669.316 337 648.15 334.5 629.816 329.5C611.483 324.167 595.65 317.167 582.316 308.5C568.983 299.833 558.15 290.333 549.816 280C541.483 269.667 535.483 259.333 531.816 249C528.483 238.667 527.15 229.333 527.816 221ZM1056.48 308.5H1121.48V430H1056.48V308.5ZM1088.98 336.5C1045.98 336.5 1009.15 329.833 978.484 316.5C948.151 302.833 924.818 283.5 908.484 258.5C892.484 233.5 884.484 203.5 884.484 168.5C884.484 133.167 892.484 103 908.484 78C924.818 53 948.151 33.8333 978.484 20.5C1009.15 6.83332 1045.98 -1.3113e-05 1088.98 -1.3113e-05C1132.32 -1.3113e-05 1169.15 6.83332 1199.48 20.5C1229.82 33.8333 1252.98 53 1268.98 78C1285.32 103 1293.48 133.167 1293.48 168.5C1293.48 203.5 1285.32 233.5 1268.98 258.5C1252.98 283.5 1229.82 302.833 1199.48 316.5C1169.15 329.833 1132.32 336.5 1088.98 336.5ZM1088.98 279C1115.65 279 1138.98 275 1158.98 267C1179.32 259 1195.15 246.833 1206.48 230.5C1218.15 214.167 1223.98 193.5 1223.98 168.5C1223.98 143.5 1218.15 122.833 1206.48 106.5C1195.15 90.1667 1179.32 78 1158.98 70C1138.98 61.6667 1115.65 57.5 1088.98 57.5C1062.65 57.5 1039.15 61.6667 1018.48 70C997.818 78 981.651 90.1667 969.984 106.5C958.318 122.833 952.484 143.5 952.484 168.5C952.484 193.5 958.318 214.167 969.984 230.5C981.651 246.833 997.818 259 1018.48 267C1039.15 275 1062.65 279 1088.98 279ZM1320.13 6.49999H1661.13V62H1320.13V6.49999ZM1457.63 55H1524.13V330H1457.63V55ZM1877.07 336.5C1834.07 336.5 1797.24 329.833 1766.57 316.5C1736.24 302.833 1712.9 283.5 1696.57 258.5C1680.57 233.5 1672.57 203.5 1672.57 168.5C1672.57 133.167 1680.57 103 1696.57 78C1712.9 53 1736.24 33.8333 1766.57 20.5C1797.24 6.83332 1834.07 -1.3113e-05 1877.07 -1.3113e-05C1920.4 -1.3113e-05 1957.24 6.83332 1987.57 20.5C2017.9 33.8333 2041.07 53 2057.07 78C2073.4 103 2081.57 133.167 2081.57 168.5C2081.57 203.5 2073.4 233.5 2057.07 258.5C2041.07 283.5 2017.9 302.833 1987.57 316.5C1957.24 329.833 1920.4 336.5 1877.07 336.5ZM1877.07 279C1903.74 279 1927.07 275 1947.07 267C1967.4 259 1983.24 246.833 1994.57 230.5C2006.24 214.167 2012.07 193.5 2012.07 168.5C2012.07 143.5 2006.24 122.833 1994.57 106.5C1983.24 90.1667 1967.4 78 1947.07 70C1927.07 61.6667 1903.74 57.5 1877.07 57.5C1850.74 57.5 1827.24 61.6667 1806.57 70C1785.9 78 1769.74 90.1667 1758.07 106.5C1746.4 122.833 1740.57 143.5 1740.57 168.5C1740.57 193.5 1746.4 214.167 1758.07 230.5C1769.74 246.833 1785.9 259 1806.57 267C1827.24 275 1850.74 279 1877.07 279Z" fill="#5F6CB1"/>
</svg>
